<?xml version="1.0" encoding="UTF-8"?>
<svg xmlns="http://www.w3.org/2000/svg" xmlns:xlink="http://www.w3.org/1999/xlink" version="1.1" width="400px" height="400px" viewBox="0 0 400 400"><defs><rect id="r0" width="10" height="10" fill="#000000"/></defs><rect x="0" y="0" width="400" height="400" fill="#fefefe"/><use x="55" y="55" xlink:href="#r0"/><use x="65" y="55" xlink:href="#r0"/><use x="75" y="55" xlink:href="#r0"/><use x="85" y="55" xlink:href="#r0"/><use x="95" y="55" xlink:href="#r0"/><use x="105" y="55" xlink:href="#r0"/><use x="115" y="55" xlink:href="#r0"/><use x="155" y="55" xlink:href="#r0"/><use x="175" y="55" xlink:href="#r0"/><use x="185" y="55" xlink:href="#r0"/><use x="205" y="55" xlink:href="#r0"/><use x="245" y="55" xlink:href="#r0"/><use x="275" y="55" xlink:href="#r0"/><use x="285" y="55" xlink:href="#r0"/><use x="295" y="55" xlink:href="#r0"/><use x="305" y="55" xlink:href="#r0"/><use x="315" y="55" xlink:href="#r0"/><use x="325" y="55" xlink:href="#r0"/><use x="335" y="55" xlink:href="#r0"/><use x="55" y="65" xlink:href="#r0"/><use x="115" y="65" xlink:href="#r0"/><use x="135" y="65" xlink:href="#r0"/><use x="155" y="65" xlink:href="#r0"/><use x="185" y="65" xlink:href="#r0"/><use x="195" y="65" xlink:href="#r0"/><use x="205" y="65" xlink:href="#r0"/><use x="225" y="65" xlink:href="#r0"/><use x="255" y="65" xlink:href="#r0"/><use x="275" y="65" xlink:href="#r0"/><use x="335" y="65" xlink:href="#r0"/><use x="55" y="75" xlink:href="#r0"/><use x="75" y="75" xlink:href="#r0"/><use x="85" y="75" xlink:href="#r0"/><use x="95" y="75" xlink:href="#r0"/><use x="115" y="75" xlink:href="#r0"/><use x="175" y="75" xlink:href="#r0"/><use x="185" y="75" xlink:href="#r0"/><use x="255" y="75" xlink:href="#r0"/><use x="275" y="75" xlink:href="#r0"/><use x="295" y="75" xlink:href="#r0"/><use x="305" y="75" xlink:href="#r0"/><use x="315" y="75" xlink:href="#r0"/><use x="335" y="75" xlink:href="#r0"/><use x="55" y="85" xlink:href="#r0"/><use x="75" y="85" xlink:href="#r0"/><use x="85" y="85" xlink:href="#r0"/><use x="95" y="85" xlink:href="#r0"/><use x="115" y="85" xlink:href="#r0"/><use x="135" y="85" xlink:href="#r0"/><use x="145" y="85" xlink:href="#r0"/><use x="155" y="85" xlink:href="#r0"/><use x="175" y="85" xlink:href="#r0"/><use x="195" y="85" xlink:href="#r0"/><use x="205" y="85" xlink:href="#r0"/><use x="225" y="85" xlink:href="#r0"/><use x="235" y="85" xlink:href="#r0"/><use x="255" y="85" xlink:href="#r0"/><use x="275" y="85" xlink:href="#r0"/><use x="295" y="85" xlink:href="#r0"/><use x="305" y="85" xlink:href="#r0"/><use x="315" y="85" xlink:href="#r0"/><use x="335" y="85" xlink:href="#r0"/><use x="55" y="95" xlink:href="#r0"/><use x="75" y="95" xlink:href="#r0"/><use x="85" y="95" xlink:href="#r0"/><use x="95" y="95" xlink:href="#r0"/><use x="115" y="95" xlink:href="#r0"/><use x="145" y="95" xlink:href="#r0"/><use x="215" y="95" xlink:href="#r0"/><use x="225" y="95" xlink:href="#r0"/><use x="235" y="95" xlink:href="#r0"/><use x="245" y="95" xlink:href="#r0"/><use x="275" y="95" xlink:href="#r0"/><use x="295" y="95" xlink:href="#r0"/><use x="305" y="95" xlink:href="#r0"/><use x="315" y="95" xlink:href="#r0"/><use x="335" y="95" xlink:href="#r0"/><use x="55" y="105" xlink:href="#r0"/><use x="115" y="105" xlink:href="#r0"/><use x="135" y="105" xlink:href="#r0"/><use x="145" y="105" xlink:href="#r0"/><use x="165" y="105" xlink:href="#r0"/><use x="175" y="105" xlink:href="#r0"/><use x="205" y="105" xlink:href="#r0"/><use x="255" y="105" xlink:href="#r0"/><use x="275" y="105" xlink:href="#r0"/><use x="335" y="105" xlink:href="#r0"/><use x="55" y="115" xlink:href="#r0"/><use x="65" y="115" xlink:href="#r0"/><use x="75" y="115" xlink:href="#r0"/><use x="85" y="115" xlink:href="#r0"/><use x="95" y="115" xlink:href="#r0"/><use x="105" y="115" xlink:href="#r0"/><use x="115" y="115" xlink:href="#r0"/><use x="135" y="115" xlink:href="#r0"/><use x="155" y="115" xlink:href="#r0"/><use x="175" y="115" xlink:href="#r0"/><use x="195" y="115" xlink:href="#r0"/><use x="215" y="115" xlink:href="#r0"/><use x="235" y="115" xlink:href="#r0"/><use x="255" y="115" xlink:href="#r0"/><use x="275" y="115" xlink:href="#r0"/><use x="285" y="115" xlink:href="#r0"/><use x="295" y="115" xlink:href="#r0"/><use x="305" y="115" xlink:href="#r0"/><use x="315" y="115" xlink:href="#r0"/><use x="325" y="115" xlink:href="#r0"/><use x="335" y="115" xlink:href="#r0"/><use x="145" y="125" xlink:href="#r0"/><use x="155" y="125" xlink:href="#r0"/><use x="165" y="125" xlink:href="#r0"/><use x="195" y="125" xlink:href="#r0"/><use x="205" y="125" xlink:href="#r0"/><use x="215" y="125" xlink:href="#r0"/><use x="55" y="135" xlink:href="#r0"/><use x="65" y="135" xlink:href="#r0"/><use x="75" y="135" xlink:href="#r0"/><use x="85" y="135" xlink:href="#r0"/><use x="95" y="135" xlink:href="#r0"/><use x="115" y="135" xlink:href="#r0"/><use x="125" y="135" xlink:href="#r0"/><use x="135" y="135" xlink:href="#r0"/><use x="145" y="135" xlink:href="#r0"/><use x="165" y="135" xlink:href="#r0"/><use x="205" y="135" xlink:href="#r0"/><use x="225" y="135" xlink:href="#r0"/><use x="235" y="135" xlink:href="#r0"/><use x="245" y="135" xlink:href="#r0"/><use x="255" y="135" xlink:href="#r0"/><use x="265" y="135" xlink:href="#r0"/><use x="285" y="135" xlink:href="#r0"/><use x="305" y="135" xlink:href="#r0"/><use x="325" y="135" xlink:href="#r0"/><use x="95" y="145" xlink:href="#r0"/><use x="105" y="145" xlink:href="#r0"/><use x="155" y="145" xlink:href="#r0"/><use x="175" y="145" xlink:href="#r0"/><use x="185" y="145" xlink:href="#r0"/><use x="195" y="145" xlink:href="#r0"/><use x="215" y="145" xlink:href="#r0"/><use x="245" y="145" xlink:href="#r0"/><use x="265" y="145" xlink:href="#r0"/><use x="275" y="145" xlink:href="#r0"/><use x="285" y="145" xlink:href="#r0"/><use x="295" y="145" xlink:href="#r0"/><use x="305" y="145" xlink:href="#r0"/><use x="335" y="145" xlink:href="#r0"/><use x="75" y="155" xlink:href="#r0"/><use x="105" y="155" xlink:href="#r0"/><use x="115" y="155" xlink:href="#r0"/><use x="125" y="155" xlink:href="#r0"/><use x="155" y="155" xlink:href="#r0"/><use x="185" y="155" xlink:href="#r0"/><use x="195" y="155" xlink:href="#r0"/><use x="205" y="155" xlink:href="#r0"/><use x="215" y="155" xlink:href="#r0"/><use x="225" y="155" xlink:href="#r0"/><use x="255" y="155" xlink:href="#r0"/><use x="295" y="155" xlink:href="#r0"/><use x="305" y="155" xlink:href="#r0"/><use x="325" y="155" xlink:href="#r0"/><use x="65" y="165" xlink:href="#r0"/><use x="75" y="165" xlink:href="#r0"/><use x="95" y="165" xlink:href="#r0"/><use x="175" y="165" xlink:href="#r0"/><use x="185" y="165" xlink:href="#r0"/><use x="205" y="165" xlink:href="#r0"/><use x="215" y="165" xlink:href="#r0"/><use x="235" y="165" xlink:href="#r0"/><use x="265" y="165" xlink:href="#r0"/><use x="285" y="165" xlink:href="#r0"/><use x="295" y="165" xlink:href="#r0"/><use x="325" y="165" xlink:href="#r0"/><use x="335" y="165" xlink:href="#r0"/><use x="65" y="175" xlink:href="#r0"/><use x="95" y="175" xlink:href="#r0"/><use x="115" y="175" xlink:href="#r0"/><use x="125" y="175" xlink:href="#r0"/><use x="135" y="175" xlink:href="#r0"/><use x="145" y="175" xlink:href="#r0"/><use x="155" y="175" xlink:href="#r0"/><use x="175" y="175" xlink:href="#r0"/><use x="195" y="175" xlink:href="#r0"/><use x="205" y="175" xlink:href="#r0"/><use x="215" y="175" xlink:href="#r0"/><use x="225" y="175" xlink:href="#r0"/><use x="265" y="175" xlink:href="#r0"/><use x="305" y="175" xlink:href="#r0"/><use x="315" y="175" xlink:href="#r0"/><use x="325" y="175" xlink:href="#r0"/><use x="65" y="185" xlink:href="#r0"/><use x="75" y="185" xlink:href="#r0"/><use x="135" y="185" xlink:href="#r0"/><use x="145" y="185" xlink:href="#r0"/><use x="235" y="185" xlink:href="#r0"/><use x="245" y="185" xlink:href="#r0"/><use x="255" y="185" xlink:href="#r0"/><use x="265" y="185" xlink:href="#r0"/><use x="275" y="185" xlink:href="#r0"/><use x="285" y="185" xlink:href="#r0"/><use x="295" y="185" xlink:href="#r0"/><use x="325" y="185" xlink:href="#r0"/><use x="335" y="185" xlink:href="#r0"/><use x="75" y="195" xlink:href="#r0"/><use x="85" y="195" xlink:href="#r0"/><use x="115" y="195" xlink:href="#r0"/><use x="135" y="195" xlink:href="#r0"/><use x="155" y="195" xlink:href="#r0"/><use x="165" y="195" xlink:href="#r0"/><use x="175" y="195" xlink:href="#r0"/><use x="205" y="195" xlink:href="#r0"/><use x="215" y="195" xlink:href="#r0"/><use x="225" y="195" xlink:href="#r0"/><use x="255" y="195" xlink:href="#r0"/><use x="275" y="195" xlink:href="#r0"/><use x="295" y="195" xlink:href="#r0"/><use x="305" y="195" xlink:href="#r0"/><use x="315" y="195" xlink:href="#r0"/><use x="55" y="205" xlink:href="#r0"/><use x="105" y="205" xlink:href="#r0"/><use x="135" y="205" xlink:href="#r0"/><use x="165" y="205" xlink:href="#r0"/><use x="195" y="205" xlink:href="#r0"/><use x="205" y="205" xlink:href="#r0"/><use x="215" y="205" xlink:href="#r0"/><use x="235" y="205" xlink:href="#r0"/><use x="255" y="205" xlink:href="#r0"/><use x="285" y="205" xlink:href="#r0"/><use x="295" y="205" xlink:href="#r0"/><use x="75" y="215" xlink:href="#r0"/><use x="95" y="215" xlink:href="#r0"/><use x="115" y="215" xlink:href="#r0"/><use x="135" y="215" xlink:href="#r0"/><use x="145" y="215" xlink:href="#r0"/><use x="165" y="215" xlink:href="#r0"/><use x="205" y="215" xlink:href="#r0"/><use x="225" y="215" xlink:href="#r0"/><use x="245" y="215" xlink:href="#r0"/><use x="265" y="215" xlink:href="#r0"/><use x="305" y="215" xlink:href="#r0"/><use x="315" y="215" xlink:href="#r0"/><use x="325" y="215" xlink:href="#r0"/><use x="55" y="225" xlink:href="#r0"/><use x="65" y="225" xlink:href="#r0"/><use x="75" y="225" xlink:href="#r0"/><use x="85" y="225" xlink:href="#r0"/><use x="95" y="225" xlink:href="#r0"/><use x="105" y="225" xlink:href="#r0"/><use x="135" y="225" xlink:href="#r0"/><use x="155" y="225" xlink:href="#r0"/><use x="175" y="225" xlink:href="#r0"/><use x="185" y="225" xlink:href="#r0"/><use x="195" y="225" xlink:href="#r0"/><use x="215" y="225" xlink:href="#r0"/><use x="235" y="225" xlink:href="#r0"/><use x="245" y="225" xlink:href="#r0"/><use x="275" y="225" xlink:href="#r0"/><use x="285" y="225" xlink:href="#r0"/><use x="295" y="225" xlink:href="#r0"/><use x="335" y="225" xlink:href="#r0"/><use x="55" y="235" xlink:href="#r0"/><use x="85" y="235" xlink:href="#r0"/><use x="115" y="235" xlink:href="#r0"/><use x="125" y="235" xlink:href="#r0"/><use x="155" y="235" xlink:href="#r0"/><use x="185" y="235" xlink:href="#r0"/><use x="195" y="235" xlink:href="#r0"/><use x="205" y="235" xlink:href="#r0"/><use x="215" y="235" xlink:href="#r0"/><use x="225" y="235" xlink:href="#r0"/><use x="235" y="235" xlink:href="#r0"/><use x="265" y="235" xlink:href="#r0"/><use x="295" y="235" xlink:href="#r0"/><use x="305" y="235" xlink:href="#r0"/><use x="325" y="235" xlink:href="#r0"/><use x="55" y="245" xlink:href="#r0"/><use x="85" y="245" xlink:href="#r0"/><use x="135" y="245" xlink:href="#r0"/><use x="145" y="245" xlink:href="#r0"/><use x="175" y="245" xlink:href="#r0"/><use x="185" y="245" xlink:href="#r0"/><use x="235" y="245" xlink:href="#r0"/><use x="285" y="245" xlink:href="#r0"/><use x="295" y="245" xlink:href="#r0"/><use x="55" y="255" xlink:href="#r0"/><use x="75" y="255" xlink:href="#r0"/><use x="95" y="255" xlink:href="#r0"/><use x="115" y="255" xlink:href="#r0"/><use x="125" y="255" xlink:href="#r0"/><use x="175" y="255" xlink:href="#r0"/><use x="195" y="255" xlink:href="#r0"/><use x="205" y="255" xlink:href="#r0"/><use x="215" y="255" xlink:href="#r0"/><use x="225" y="255" xlink:href="#r0"/><use x="245" y="255" xlink:href="#r0"/><use x="255" y="255" xlink:href="#r0"/><use x="265" y="255" xlink:href="#r0"/><use x="275" y="255" xlink:href="#r0"/><use x="285" y="255" xlink:href="#r0"/><use x="295" y="255" xlink:href="#r0"/><use x="305" y="255" xlink:href="#r0"/><use x="315" y="255" xlink:href="#r0"/><use x="135" y="265" xlink:href="#r0"/><use x="155" y="265" xlink:href="#r0"/><use x="235" y="265" xlink:href="#r0"/><use x="245" y="265" xlink:href="#r0"/><use x="255" y="265" xlink:href="#r0"/><use x="295" y="265" xlink:href="#r0"/><use x="305" y="265" xlink:href="#r0"/><use x="335" y="265" xlink:href="#r0"/><use x="55" y="275" xlink:href="#r0"/><use x="65" y="275" xlink:href="#r0"/><use x="75" y="275" xlink:href="#r0"/><use x="85" y="275" xlink:href="#r0"/><use x="95" y="275" xlink:href="#r0"/><use x="105" y="275" xlink:href="#r0"/><use x="115" y="275" xlink:href="#r0"/><use x="135" y="275" xlink:href="#r0"/><use x="155" y="275" xlink:href="#r0"/><use x="165" y="275" xlink:href="#r0"/><use x="175" y="275" xlink:href="#r0"/><use x="205" y="275" xlink:href="#r0"/><use x="215" y="275" xlink:href="#r0"/><use x="235" y="275" xlink:href="#r0"/><use x="245" y="275" xlink:href="#r0"/><use x="255" y="275" xlink:href="#r0"/><use x="275" y="275" xlink:href="#r0"/><use x="295" y="275" xlink:href="#r0"/><use x="315" y="275" xlink:href="#r0"/><use x="325" y="275" xlink:href="#r0"/><use x="55" y="285" xlink:href="#r0"/><use x="115" y="285" xlink:href="#r0"/><use x="145" y="285" xlink:href="#r0"/><use x="155" y="285" xlink:href="#r0"/><use x="165" y="285" xlink:href="#r0"/><use x="195" y="285" xlink:href="#r0"/><use x="255" y="285" xlink:href="#r0"/><use x="295" y="285" xlink:href="#r0"/><use x="325" y="285" xlink:href="#r0"/><use x="55" y="295" xlink:href="#r0"/><use x="75" y="295" xlink:href="#r0"/><use x="85" y="295" xlink:href="#r0"/><use x="95" y="295" xlink:href="#r0"/><use x="115" y="295" xlink:href="#r0"/><use x="135" y="295" xlink:href="#r0"/><use x="165" y="295" xlink:href="#r0"/><use x="205" y="295" xlink:href="#r0"/><use x="225" y="295" xlink:href="#r0"/><use x="235" y="295" xlink:href="#r0"/><use x="255" y="295" xlink:href="#r0"/><use x="265" y="295" xlink:href="#r0"/><use x="275" y="295" xlink:href="#r0"/><use x="285" y="295" xlink:href="#r0"/><use x="295" y="295" xlink:href="#r0"/><use x="305" y="295" xlink:href="#r0"/><use x="315" y="295" xlink:href="#r0"/><use x="55" y="305" xlink:href="#r0"/><use x="75" y="305" xlink:href="#r0"/><use x="85" y="305" xlink:href="#r0"/><use x="95" y="305" xlink:href="#r0"/><use x="115" y="305" xlink:href="#r0"/><use x="135" y="305" xlink:href="#r0"/><use x="145" y="305" xlink:href="#r0"/><use x="155" y="305" xlink:href="#r0"/><use x="175" y="305" xlink:href="#r0"/><use x="185" y="305" xlink:href="#r0"/><use x="195" y="305" xlink:href="#r0"/><use x="215" y="305" xlink:href="#r0"/><use x="245" y="305" xlink:href="#r0"/><use x="265" y="305" xlink:href="#r0"/><use x="325" y="305" xlink:href="#r0"/><use x="335" y="305" xlink:href="#r0"/><use x="55" y="315" xlink:href="#r0"/><use x="75" y="315" xlink:href="#r0"/><use x="85" y="315" xlink:href="#r0"/><use x="95" y="315" xlink:href="#r0"/><use x="115" y="315" xlink:href="#r0"/><use x="135" y="315" xlink:href="#r0"/><use x="145" y="315" xlink:href="#r0"/><use x="155" y="315" xlink:href="#r0"/><use x="185" y="315" xlink:href="#r0"/><use x="195" y="315" xlink:href="#r0"/><use x="205" y="315" xlink:href="#r0"/><use x="225" y="315" xlink:href="#r0"/><use x="245" y="315" xlink:href="#r0"/><use x="275" y="315" xlink:href="#r0"/><use x="285" y="315" xlink:href="#r0"/><use x="295" y="315" xlink:href="#r0"/><use x="325" y="315" xlink:href="#r0"/><use x="55" y="325" xlink:href="#r0"/><use x="115" y="325" xlink:href="#r0"/><use x="135" y="325" xlink:href="#r0"/><use x="145" y="325" xlink:href="#r0"/><use x="175" y="325" xlink:href="#r0"/><use x="185" y="325" xlink:href="#r0"/><use x="205" y="325" xlink:href="#r0"/><use x="235" y="325" xlink:href="#r0"/><use x="255" y="325" xlink:href="#r0"/><use x="265" y="325" xlink:href="#r0"/><use x="285" y="325" xlink:href="#r0"/><use x="295" y="325" xlink:href="#r0"/><use x="325" y="325" xlink:href="#r0"/><use x="55" y="335" xlink:href="#r0"/><use x="65" y="335" xlink:href="#r0"/><use x="75" y="335" xlink:href="#r0"/><use x="85" y="335" xlink:href="#r0"/><use x="95" y="335" xlink:href="#r0"/><use x="105" y="335" xlink:href="#r0"/><use x="115" y="335" xlink:href="#r0"/><use x="135" y="335" xlink:href="#r0"/><use x="145" y="335" xlink:href="#r0"/><use x="175" y="335" xlink:href="#r0"/><use x="195" y="335" xlink:href="#r0"/><use x="215" y="335" xlink:href="#r0"/><use x="225" y="335" xlink:href="#r0"/><use x="235" y="335" xlink:href="#r0"/><use x="245" y="335" xlink:href="#r0"/><use x="285" y="335" xlink:href="#r0"/><use x="315" y="335" xlink:href="#r0"/></svg>
